# xmcd
#
# Track frame offsets:
#	150
#	20454
#	38194
#	55088
#	75490
#	88961
#	103774
#	122322
#	138449
#	152926
#	171334
#	187986
#	205616
#	224022
#	241924
#	271043
#
# Disc length: 3619 seconds
#
# Revision: 3
# Processed by: cddbd v1.5.2PL0 Copyright (c) Steve Scherf et al.
# Submitted via: audiograbber 1.83.01
#
DISCID=d60e2110
DTITLE=Country: Best Of Summer 2004 Vol 1 - ASK1526
DYEAR=2004
DGENRE=Country
TTITLE0=Jackson, Alan - Remember When
TTITLE1=Duet Jackson, Alan and Jimmy Buffett - It's Five O'Clock Somewhere
TTITLE2=Shelton, Blake - When Somebody Knows You That Well
TTITLE3=Duet Paisley, Brad and Alison Krauss - Whiskey Lullaby
TTITLE4=Brooks and Dunn - That's What She Gets For Loving Me
TTITLE5=Murphy, David Lee - Loco
TTITLE6=Strait, George - Desperately
TTITLE7=Wilson, Gretchen - Redneck Woman
TTITLE8=Diffie, Joe - Tougher Than Nails
TTITLE9=Chesney, Kenny - I Go Back
TTITLE10=Duet Chesney, Kenny and Uncle Kracker - When The Sun Goes Down
TTITLE11=Lonestar - Let's Be Us Again
TTITLE12=Rascal Flatts - Mayberry
TTITLE13=McEntire, Reba - Somebody
TTITLE14=Keith, Toby - Whiskey Girl
TTITLE15=Data Track - Data Track
EXTD=
EXTT0=
EXTT1=
EXTT2=
EXTT3=
EXTT4=
EXTT5=
EXTT6=
EXTT7=
EXTT8=
EXTT9=
EXTT10=
EXTT11=
EXTT12=
EXTT13=
EXTT14=
EXTT15=
PLAYORDER=
